<?xml version="1.0" encoding="UTF-8"?>
<svg id="Calque_1" data-name="Calque 1" xmlns="http://www.w3.org/2000/svg" viewBox="0 0 707.8 528.93">
  <g>
    <path d="M617.98,14.1h7.19c1.75,0,3.17.2,4.24.6,1.07.4,1.84.97,2.31,1.69.46.73.7,1.59.7,2.59,0,1.27-.39,2.33-1.17,3.17-.78.84-1.86,1.39-3.23,1.66.98.21,1.78.59,2.39,1.13.61.54,1.09,1.26,1.45,2.16s.63,2.03.81,3.39c.04.31.08.71.13,1.21.02.07.03.14.03.21h-4.45l-.03-.86c-.2-1.84-.64-3.24-1.33-4.18-.69-.95-1.75-1.43-3.18-1.45h-1.61v6.49h-4.24V14.1h-.01ZM620.5,22.74h3.89c1.27,0,2.22-.3,2.86-.89.63-.59.95-1.33.95-2.23s-.27-1.5-.82-1.92-1.44-.63-2.7-.63h-2.47v7.08l-1.72-1.42h0Z" fill="#fff"/>
    <path d="M625.4,44.57c-11.89,0-21.56-9.67-21.56-21.56s9.67-21.56,21.56-21.56,21.56,9.67,21.56,21.56-9.67,21.56-21.56,21.56ZM625.4,4.73c-10.08,0-18.28,8.2-18.28,18.28s8.2,18.28,18.28,18.28,18.28-8.2,18.28-18.28-8.2-18.28-18.28-18.28Z" fill="#fff"/>
  </g>
  <path d="M117.39,188.46l-35.63,119.22-42.17-118.94H0l57.62,163.51h40.39l58.97-163.91-39.6.12h.01Z" fill="#fff"/>
  <path d="M224.18,188.74h-44.07l-59.84,163.51h35.21l14.53-41.12h56.15l14.03,41.12h41.87l-57.87-163.51h0ZM178.38,283.79l20.43-56.4,19.22,56.4h-39.65Z" fill="#fff"/>
  <path d="M335.67,321.96v-133.22h-39.42v163.51h117.21v-30.29h-77.8.01Z" fill="#fff"/>
  <path d="M561.6,188.73v103.9c0,15.42-2.58,28.31-7.75,38.67-4.26,8.53-10.32,15.31-18.17,20.31h-86.06c-7.85-5-13.92-11.78-18.17-20.31-5.17-10.36-7.76-23.25-7.76-38.67v-103.9h39.4v104.4c0,12.97,2.63,22.53,7.89,28.68,4.03,4.73,9.81,7.65,17.34,8.73,1.38.21,2.83.35,4.33.43,9.67-.5,16.9-3.56,21.67-9.16,5.25-6.15,7.89-15.71,7.89-28.68v-104.4h39.39Z" fill="#fff"/>
  <path d="M621.74,321.71v-37.68h53.2v-30.53h-53.2v-34.48h86.06v-30.29h-124.96v163.51h124.86v-30.53h-85.96Z" fill="#fff"/>
  <polygon points="580.35 3.11 580.35 166.09 540.62 166.09 540.62 99.49 463.36 99.36 463.36 166.09 423.64 166.09 423.64 3.11 463.36 3.11 463.36 69.71 540.62 69.84 540.62 3.11 580.35 3.11" fill="#fff"/>
  <path d="M179.4,2.96h39.3v163.1h-39.3V2.96Z" fill="#fff"/>
  <path d="M295.83,41.91c7.51-4.26,15.95-6.5,24.4-6.5,19.83,0,37.93,12.12,46.13,30.9l.61,1.38,1.46.02,30.47.09h2.9l-.7-2.93c-3.49-15.35-11.52-29.52-23.22-40.95-11.52-11.31-25.54-18.94-40.5-22.1-5.69-1.2-11.47-1.82-17.17-1.82-24.45,0-47.7,11.18-63.8,30.69-15.98,19.36-23.05,44.98-19.44,70.31,3.17,22.1,13.4,41.09,29.62,54.94,4.58,3.92,9.51,7.3,14.73,10.12h78.19c6.42-3.55,12.47-8.04,18.08-13.41.32-.3.71-.78,1.39-1.57.15-.19.37-.42.61-.71v15.69h21.84v-77.96h-72.46v34.82h29.16l-.49.65c-9.62,10.83-23.25,17.05-37.4,17.05s-28.71-6.64-38.37-18.23c-9.91-11.89-14.05-27.79-11.32-43.62,2.73-15.86,11.95-29.31,25.27-36.85h.01Z" fill="#fff"/>
  <polygon points="156.77 3.06 156.77 165.94 117.07 165.94 117.07 90.36 39.86 108.05 39.86 165.94 .16 165.94 .16 3.06 39.86 3.06 39.86 77.65 117.07 59.97 117.07 3.06 156.77 3.06" fill="#fff"/>
  <g>
    <path d="M226.6,390.97h32.75c14.59,0,25.4,2.65,32.42,7.94,7.02,5.3,10.54,13.46,10.54,24.48,0,7.68-1.57,13.94-4.7,18.81-3.14,4.86-7.92,8.46-14.35,10.78-6.43,2.33-14.62,3.49-24.56,3.49h-20.43v42.15h-11.67v-107.64ZM276.93,444.23c4.59-1.57,7.97-4.03,10.13-7.38,2.16-3.35,3.24-7.83,3.24-13.46,0-8.11-2.41-13.89-7.21-17.35-4.81-3.46-12.73-5.19-23.75-5.19h-21.07v45.72h20.43c7.56,0,13.64-.78,18.24-2.35Z" fill="#fff"/>
    <path d="M322.73,496.59c-5.84-2.65-10.54-6.4-14.1-11.27l9.4-5.35c2.92,3.78,6.51,6.62,10.78,8.51,4.27,1.89,8.78,2.84,13.54,2.84,5.19,0,9.32-1.19,12.4-3.57,3.08-2.38,4.62-5.56,4.62-9.56,0-3.24-1.3-5.73-3.89-7.46-2.59-1.73-6.65-3.3-12.16-4.7l-6.48-1.62c-5.73-1.3-10.43-2.7-14.1-4.21-3.68-1.51-6.59-3.67-8.75-6.48-2.16-2.81-3.24-6.48-3.24-11.02,0-4.22,1.19-8,3.57-11.35,2.38-3.35,5.62-6,9.73-7.94,4.11-1.95,8.7-2.92,13.78-2.92,6.38,0,12.18,1.27,17.43,3.81,5.24,2.54,9.81,6.14,13.7,10.78l-9.24,5.51c-2.7-3.57-5.97-6.29-9.81-8.19-3.84-1.89-7.92-2.84-12.24-2.84-4.86,0-8.75,1.13-11.67,3.4s-4.38,5.3-4.38,9.08c0,2.81.86,5,2.59,6.57,1.73,1.57,4.48,2.89,8.27,3.97,2.38.54,5.67,1.3,9.89,2.27.97.22,1.78.43,2.43.65,5.08,1.19,9.46,2.59,13.13,4.22,3.67,1.62,6.65,3.87,8.92,6.73,2.27,2.86,3.4,6.46,3.4,10.78,0,4.54-1.19,8.57-3.57,12.08-2.38,3.51-5.7,6.27-9.97,8.27-4.27,2-9.22,3-14.83,3-6.92,0-13.29-1.32-19.13-3.97Z" fill="#fff"/>
    <path d="M375.74,518.72h9.56c3.46-.22,6.16-.95,8.11-2.19,1.95-1.24,3.7-3.32,5.27-6.24,1.57-2.92,3.59-7.73,6.08-14.43l-30.64-73.76h11.83l24.16,60.96,21.4-60.96h11.83l-29.02,79.27c-2.92,7.46-5.54,13.02-7.86,16.7-2.33,3.67-5.22,6.4-8.67,8.19-3.46,1.78-8.16,2.67-14.1,2.67h-7.94v-10.21Z" fill="#fff"/>
    <path d="M463.2,495.05c-5.67-3.35-10.05-8.02-13.13-14.02s-4.62-12.89-4.62-20.67,1.57-14.67,4.7-20.67c3.13-6,7.56-10.67,13.29-14.02,5.73-3.35,12.26-5.03,19.62-5.03,8.97,0,16.4,2.3,22.29,6.89,5.89,4.59,9.86,10.84,11.92,18.72l-10.86,3.08c-1.41-5.94-4.05-10.62-7.94-14.02s-9.08-5.11-15.56-5.11c-7.89,0-14.18,2.7-18.89,8.11-4.7,5.41-7.05,12.65-7.05,21.72v.65c0,8.97,2.3,16.19,6.89,21.64,4.59,5.46,10.83,8.19,18.72,8.19,6.81,0,12.18-1.73,16.13-5.19,3.94-3.46,6.67-8.32,8.19-14.59l10.86,3.24c-2.27,8.21-6.38,14.62-12.32,19.21-5.95,4.59-13.46,6.89-22.53,6.89-7.46,0-14.02-1.67-19.7-5.03Z" fill="#fff"/>
    <path d="M530.24,389.35h11.02v50.09c4.54-12.54,13.08-18.81,25.61-18.81,8.21,0,14.67,2.62,19.37,7.86,4.7,5.24,7.05,12.67,7.05,22.29v47.82h-11.35v-47.18c0-6.81-1.54-12-4.62-15.56s-7.49-5.35-13.21-5.35c-7.57,0-13.27,3-17.1,9-3.84,6-5.75,14.67-5.75,26.02v33.07h-11.02v-109.27Z" fill="#fff"/>
    <path d="M624.18,495.05c-5.67-3.35-10.08-8-13.21-13.94-3.14-5.94-4.7-12.86-4.7-20.75s1.59-14.67,4.78-20.67c3.19-6,7.64-10.67,13.38-14.02,5.73-3.35,12.32-5.03,19.78-5.03s13.89,1.68,19.62,5.03c5.73,3.35,10.19,8.02,13.37,14.02,3.19,6,4.78,12.89,4.78,20.67s-1.62,14.54-4.86,20.59c-3.24,6.05-7.73,10.76-13.46,14.1-5.73,3.35-12.32,5.03-19.78,5.03s-14.02-1.67-19.7-5.03ZM663.25,482.41c4.7-5.29,7.05-12.48,7.05-21.56v-.65c0-9.19-2.33-16.48-6.97-21.89-4.65-5.4-11.02-8.11-19.13-8.11s-14.56,2.7-19.37,8.11c-4.81,5.41-7.21,12.7-7.21,21.89v.65c0,9.08,2.35,16.27,7.05,21.56,4.7,5.3,11.1,7.94,19.21,7.94s14.67-2.65,19.37-7.94Z" fill="#fff"/>
    <path d="M691.54,482.24h15.73v16.37h-15.73v-16.37Z" fill="#fff"/>
  </g>
</svg>