<?xml version="1.0" encoding="UTF-8"?>
<svg id="Calque_1" data-name="Calque 1" xmlns="http://www.w3.org/2000/svg" viewBox="0 0 707.8 500.4">
  <g>
    <path d="M617.98,14.1h7.19c1.75,0,3.17.2,4.24.6,1.07.4,1.84.97,2.31,1.69.46.73.7,1.59.7,2.59,0,1.27-.39,2.33-1.17,3.17-.78.84-1.86,1.39-3.23,1.66.98.21,1.78.59,2.39,1.13.61.54,1.09,1.26,1.45,2.16s.63,2.03.81,3.39c.04.31.08.71.13,1.21.02.07.03.14.03.21h-4.45l-.03-.86c-.2-1.84-.64-3.24-1.33-4.18-.69-.95-1.75-1.43-3.18-1.45h-1.61v6.49h-4.24V14.1h-.01ZM620.5,22.74h3.89c1.27,0,2.22-.3,2.86-.89.63-.59.95-1.33.95-2.23s-.27-1.5-.82-1.92-1.44-.63-2.7-.63h-2.47v7.08l-1.72-1.42h0Z" fill="#fff"/>
    <path d="M625.4,44.57c-11.89,0-21.56-9.67-21.56-21.56s9.67-21.56,21.56-21.56,21.56,9.67,21.56,21.56-9.67,21.56-21.56,21.56ZM625.4,4.73c-10.08,0-18.28,8.2-18.28,18.28s8.2,18.28,18.28,18.28,18.28-8.2,18.28-18.28-8.2-18.28-18.28-18.28Z" fill="#fff"/>
  </g>
  <path d="M117.39,188.46l-35.63,119.22-42.17-118.94H0l57.62,163.51h40.39l58.97-163.91-39.6.12h.01Z" fill="#fff"/>
  <path d="M224.18,188.74h-44.07l-59.84,163.51h35.21l14.53-41.12h56.15l14.03,41.12h41.87l-57.87-163.51h0ZM178.38,283.79l20.43-56.4,19.22,56.4h-39.65Z" fill="#fff"/>
  <path d="M335.67,321.96v-133.22h-39.42v163.51h117.21v-30.29h-77.8.01Z" fill="#fff"/>
  <path d="M561.6,188.73v103.9c0,15.42-2.58,28.31-7.75,38.67-4.26,8.53-10.32,15.31-18.17,20.31h-86.06c-7.85-5-13.92-11.78-18.17-20.31-5.17-10.36-7.76-23.25-7.76-38.67v-103.9h39.4v104.4c0,12.97,2.63,22.53,7.89,28.68,4.03,4.73,9.81,7.65,17.34,8.73,1.38.21,2.83.35,4.33.43,9.67-.5,16.9-3.56,21.67-9.16,5.25-6.15,7.89-15.71,7.89-28.68v-104.4h39.39Z" fill="#fff"/>
  <path d="M621.74,321.71v-37.68h53.2v-30.53h-53.2v-34.48h86.06v-30.29h-124.96v163.51h124.86v-30.53h-85.96Z" fill="#fff"/>
  <polygon points="580.35 3.11 580.35 166.09 540.62 166.09 540.62 99.49 463.36 99.36 463.36 166.09 423.64 166.09 423.64 3.11 463.36 3.11 463.36 69.71 540.62 69.84 540.62 3.11 580.35 3.11" fill="#fff"/>
  <path d="M179.4,2.96h39.3v163.1h-39.3V2.96Z" fill="#fff"/>
  <path d="M295.83,41.91c7.51-4.26,15.95-6.5,24.4-6.5,19.83,0,37.93,12.12,46.13,30.9l.61,1.38,1.46.02,30.47.09h2.9l-.7-2.93c-3.49-15.35-11.52-29.52-23.22-40.95-11.52-11.31-25.54-18.94-40.5-22.1-5.69-1.2-11.47-1.82-17.17-1.82-24.45,0-47.7,11.18-63.8,30.69-15.98,19.36-23.05,44.98-19.44,70.31,3.17,22.1,13.4,41.09,29.62,54.94,4.58,3.92,9.51,7.3,14.73,10.12h78.19c6.42-3.55,12.47-8.04,18.08-13.41.32-.3.71-.78,1.39-1.57.15-.19.37-.42.61-.71v15.69h21.84v-77.96h-72.46v34.82h29.16l-.49.65c-9.62,10.83-23.25,17.05-37.4,17.05s-28.71-6.64-38.37-18.23c-9.91-11.89-14.05-27.79-11.32-43.62,2.73-15.86,11.95-29.31,25.27-36.85h.01Z" fill="#fff"/>
  <polygon points="156.77 3.06 156.77 165.94 117.07 165.94 117.07 90.36 39.86 108.05 39.86 165.94 .16 165.94 .16 3.06 39.86 3.06 39.86 77.65 117.07 59.97 117.07 3.06 156.77 3.06" fill="#fff"/>
  <g>
    <path d="M289.18,390.97h19.78l33.4,91.76,34.85-91.76h19.13v107.64h-11.19v-97.75l-38.1,97.75h-9.89l-36.48-97.11v97.11h-11.51v-107.64Z" fill="#fff"/>
    <path d="M428.51,495.13c-5.67-3.3-10.03-7.92-13.05-13.86-3.03-5.94-4.54-12.81-4.54-20.59s1.59-14.7,4.78-20.75c3.19-6.05,7.59-10.78,13.21-14.19,5.62-3.4,12-5.11,19.13-5.11,10.92,0,19.48,3.49,25.7,10.46,6.21,6.97,9.32,16.51,9.32,28.61v4.21h-60.79c.33,8.11,2.81,14.59,7.46,19.45,4.65,4.86,10.86,7.3,18.64,7.3,7.02,0,12.56-1.48,16.62-4.46,4.05-2.97,7-6.89,8.83-11.75l9.89,3.73c-2.59,6.48-6.78,11.75-12.56,15.81-5.78,4.05-13.37,6.08-22.78,6.08-7.57,0-14.18-1.65-19.86-4.94ZM464.83,436.53c-4.16-4.43-9.81-6.65-16.94-6.65s-13.05,2.3-17.75,6.89c-4.7,4.6-7.38,10.78-8.03,18.56h49.28c-.22-8.11-2.41-14.37-6.57-18.81Z" fill="#fff"/>
    <path d="M509.81,495.37c-5.3-3.24-9.4-7.86-12.32-13.86s-4.38-12.99-4.38-20.99,1.46-15.02,4.38-21.08c2.92-6.05,7.05-10.72,12.4-14.02,5.35-3.3,11.43-4.94,18.24-4.94,5.84,0,11.05,1.38,15.64,4.13,4.59,2.76,8.29,6.62,11.1,11.59v-46.85h10.86v109.27h-10.86v-13.94c-2.7,4.86-6.38,8.67-11.02,11.43-4.65,2.76-9.95,4.13-15.89,4.13-6.81,0-12.86-1.62-18.16-4.86ZM543.53,486.78c3.78-2.48,6.7-6,8.75-10.54,2.05-4.54,3.08-9.67,3.08-15.4v-1.3c0-5.84-1-10.97-3-15.4-2-4.43-4.89-7.86-8.67-10.29-3.78-2.43-8.21-3.65-13.29-3.65-7.78,0-13.97,2.65-18.56,7.94-4.59,5.3-6.89,12.54-6.89,21.72v1.3c0,9.19,2.29,16.37,6.89,21.56,4.59,5.19,10.78,7.78,18.56,7.78,4.97,0,9.35-1.24,13.13-3.73Z" fill="#fff"/>
    <path d="M583.9,395.51h12.81v12.97h-12.81v-12.97ZM584.54,422.1h11.51v76.52h-11.51v-76.52Z" fill="#fff"/>
    <path d="M617.45,494.4c-4.65-4-6.97-9.24-6.97-15.73,0-5.29,1.24-9.51,3.73-12.65,2.49-3.13,5.73-5.51,9.73-7.13,4-1.62,9.18-3.08,15.56-4.38,2.16-.43,3.94-.86,5.35-1.3,5.94-1.19,10.32-2.29,13.13-3.32,2.81-1.03,4.7-2.51,5.67-4.46v-.97c0-4.65-1.51-8.27-4.54-10.86-3.03-2.59-7.78-3.89-14.27-3.89s-11.59,1.35-15.32,4.05c-3.73,2.7-5.59,6.76-5.59,12.16v.81h-11.51c.11-8.43,3.13-14.89,9.08-19.37,5.94-4.48,13.72-6.73,23.34-6.73s17.1,2.22,22.13,6.65c5.03,4.43,7.54,11.13,7.54,20.1v41.99l.16,9.24h-11.19v-13.46c-2.81,5.3-6.59,9.16-11.35,11.59-4.76,2.43-10,3.65-15.72,3.65-8,0-14.32-2-18.97-6ZM654.82,486.21c4.48-3.51,7.43-8.78,8.83-15.81v-15.56c-1.62,1.62-3.87,2.89-6.73,3.81-2.87.92-6.78,1.92-11.75,3-1.19.22-2.54.49-4.05.81-6.16,1.51-10.86,3.38-14.1,5.59-3.24,2.22-4.86,5.59-4.86,10.13,0,4,1.38,7.21,4.13,9.65s6.62,3.65,11.59,3.65c6.81,0,12.46-1.76,16.94-5.27Z" fill="#fff"/>
    <path d="M691.54,482.24h15.73v16.37h-15.73v-16.37Z" fill="#fff"/>
  </g>
</svg>