<?xml version="1.0" encoding="UTF-8"?>
<svg id="Calque_1" data-name="Calque 1" xmlns="http://www.w3.org/2000/svg" viewBox="0 0 707.8 500.56">
  <g>
    <path d="M617.98,14.1h7.19c1.75,0,3.17.2,4.24.6,1.07.4,1.84.97,2.31,1.69.46.73.7,1.59.7,2.59,0,1.27-.39,2.33-1.17,3.17-.78.84-1.86,1.39-3.23,1.66.98.21,1.78.59,2.39,1.13.61.54,1.09,1.26,1.45,2.16s.63,2.03.81,3.39c.04.31.08.71.13,1.21.02.07.03.14.03.21h-4.45l-.03-.86c-.2-1.84-.64-3.24-1.33-4.18-.69-.95-1.75-1.43-3.18-1.45h-1.61v6.49h-4.24V14.1h-.01ZM620.5,22.74h3.89c1.27,0,2.22-.3,2.86-.89.63-.59.95-1.33.95-2.23s-.27-1.5-.82-1.92-1.44-.63-2.7-.63h-2.47v7.08l-1.72-1.42h0Z" fill="#fff"/>
    <path d="M625.4,44.57c-11.89,0-21.56-9.67-21.56-21.56s9.67-21.56,21.56-21.56,21.56,9.67,21.56,21.56-9.67,21.56-21.56,21.56ZM625.4,4.73c-10.08,0-18.28,8.2-18.28,18.28s8.2,18.28,18.28,18.28,18.28-8.2,18.28-18.28-8.2-18.28-18.28-18.28Z" fill="#fff"/>
  </g>
  <path d="M117.39,188.46l-35.63,119.22-42.17-118.94H0l57.62,163.51h40.39l58.97-163.91-39.6.12h.01Z" fill="#fff"/>
  <path d="M224.18,188.74h-44.07l-59.84,163.51h35.21l14.53-41.12h56.15l14.03,41.12h41.87l-57.87-163.51h0ZM178.38,283.79l20.43-56.4,19.22,56.4h-39.65Z" fill="#fff"/>
  <path d="M335.67,321.96v-133.22h-39.42v163.51h117.21v-30.29h-77.8.01Z" fill="#fff"/>
  <path d="M561.6,188.73v103.9c0,15.42-2.58,28.31-7.75,38.67-4.26,8.53-10.32,15.31-18.17,20.31h-86.06c-7.85-5-13.92-11.78-18.17-20.31-5.17-10.36-7.76-23.25-7.76-38.67v-103.9h39.4v104.4c0,12.97,2.63,22.53,7.89,28.68,4.03,4.73,9.81,7.65,17.34,8.73,1.38.21,2.83.35,4.33.43,9.67-.5,16.9-3.56,21.67-9.16,5.25-6.15,7.89-15.71,7.89-28.68v-104.4h39.39Z" fill="#fff"/>
  <path d="M621.74,321.71v-37.68h53.2v-30.53h-53.2v-34.48h86.06v-30.29h-124.96v163.51h124.86v-30.53h-85.96Z" fill="#fff"/>
  <polygon points="580.35 3.11 580.35 166.09 540.62 166.09 540.62 99.49 463.36 99.36 463.36 166.09 423.64 166.09 423.64 3.11 463.36 3.11 463.36 69.71 540.62 69.84 540.62 3.11 580.35 3.11" fill="#fff"/>
  <path d="M179.4,2.96h39.3v163.1h-39.3V2.96Z" fill="#fff"/>
  <path d="M295.83,41.91c7.51-4.26,15.95-6.5,24.4-6.5,19.83,0,37.93,12.12,46.13,30.9l.61,1.38,1.46.02,30.47.09h2.9l-.7-2.93c-3.49-15.35-11.52-29.52-23.22-40.95-11.52-11.31-25.54-18.94-40.5-22.1-5.69-1.2-11.47-1.82-17.17-1.82-24.45,0-47.7,11.18-63.8,30.69-15.98,19.36-23.05,44.98-19.44,70.31,3.17,22.1,13.4,41.09,29.62,54.94,4.58,3.92,9.51,7.3,14.73,10.12h78.19c6.42-3.55,12.47-8.04,18.08-13.41.32-.3.71-.78,1.39-1.57.15-.19.37-.42.61-.71v15.69h21.84v-77.96h-72.46v34.82h29.16l-.49.65c-9.62,10.83-23.25,17.05-37.4,17.05s-28.71-6.64-38.37-18.23c-9.91-11.89-14.05-27.79-11.32-43.62,2.73-15.86,11.95-29.31,25.27-36.85h.01Z" fill="#fff"/>
  <polygon points="156.77 3.06 156.77 165.94 117.07 165.94 117.07 90.36 39.86 108.05 39.86 165.94 .16 165.94 .16 3.06 39.86 3.06 39.86 77.65 117.07 59.97 117.07 3.06 156.77 3.06" fill="#fff"/>
  <g>
    <path d="M119.76,390.97h37.77c8,0,14.62,1,19.86,3,5.24,2,9.18,5.03,11.83,9.08,2.65,4.05,3.97,9.16,3.97,15.32,0,5.84-1.52,10.65-4.54,14.43-3.03,3.78-7.57,6.54-13.62,8.27,7.89,1.84,13.78,5,17.67,9.48,3.89,4.49,5.84,10.29,5.84,17.43s-1.46,12.48-4.38,17.02-7.3,7.94-13.13,10.21-13.02,3.4-21.56,3.4h-39.72v-107.64ZM174.15,432.39c4.48-2.97,6.73-7.43,6.73-13.37.22-6.38-1.46-10.94-5.03-13.7s-9.56-4.13-18-4.13h-26.42v35.67h22.37c9.08,0,15.86-1.48,20.35-4.46ZM179.18,483.22c4.48-3.46,6.73-8.7,6.73-15.73.11-7.02-2.19-12.24-6.89-15.64s-12.02-5.11-21.97-5.11h-25.61v41.66h27.24c9.18,0,16.02-1.73,20.51-5.19Z" fill="#fff"/>
    <path d="M218.17,492.13c-4.54-5.29-6.81-12.7-6.81-22.21v-47.82h11.51v47.18c0,7.03,1.4,12.27,4.21,15.73,2.81,3.46,7.13,5.19,12.97,5.19,7.56,0,13.38-3.08,17.43-9.24s6.08-14.64,6.08-25.45v-33.4h11.35v76.52h-11.19v-18.32c-2.16,6.59-5.38,11.54-9.65,14.83-4.27,3.3-9.75,4.94-16.46,4.94-8.43,0-14.91-2.65-19.45-7.94Z" fill="#fff"/>
    <path d="M301.33,496.59c-5.84-2.65-10.54-6.4-14.1-11.27l9.4-5.35c2.92,3.78,6.51,6.62,10.78,8.51,4.27,1.89,8.78,2.84,13.54,2.84,5.19,0,9.32-1.19,12.4-3.57,3.08-2.38,4.62-5.56,4.62-9.56,0-3.24-1.3-5.73-3.89-7.46-2.59-1.73-6.65-3.3-12.16-4.7l-6.48-1.62c-5.73-1.3-10.43-2.7-14.1-4.21-3.68-1.51-6.59-3.67-8.75-6.48-2.16-2.81-3.24-6.48-3.24-11.02,0-4.22,1.19-8,3.57-11.35,2.38-3.35,5.62-6,9.73-7.94,4.11-1.95,8.7-2.92,13.78-2.92,6.38,0,12.18,1.27,17.43,3.81,5.24,2.54,9.81,6.14,13.7,10.78l-9.24,5.51c-2.7-3.57-5.97-6.29-9.81-8.19-3.84-1.89-7.92-2.84-12.24-2.84-4.86,0-8.75,1.13-11.67,3.4s-4.38,5.3-4.38,9.08c0,2.81.86,5,2.59,6.57,1.73,1.57,4.48,2.89,8.27,3.97,2.38.54,5.67,1.3,9.89,2.27.97.22,1.78.43,2.43.65,5.08,1.19,9.46,2.59,13.13,4.22,3.67,1.62,6.65,3.87,8.92,6.73,2.27,2.86,3.4,6.46,3.4,10.78,0,4.54-1.19,8.57-3.57,12.08-2.38,3.51-5.7,6.27-9.97,8.27-4.27,2-9.22,3-14.83,3-6.92,0-13.29-1.32-19.13-3.97Z" fill="#fff"/>
    <path d="M361.48,395.51h12.81v12.97h-12.81v-12.97ZM362.12,422.1h11.51v76.52h-11.51v-76.52Z" fill="#fff"/>
    <path d="M392.6,422.1h11.19v17.99c2.05-6.27,5.24-11.1,9.56-14.51,4.32-3.4,9.73-5.11,16.21-5.11,8.32,0,14.83,2.65,19.54,7.94,4.7,5.3,7.05,12.75,7.05,22.37v47.82h-11.35v-47.18c0-6.81-1.57-12-4.7-15.56-3.14-3.57-7.51-5.35-13.13-5.35-7.57,0-13.29,3-17.18,9-3.89,6-5.84,14.67-5.84,26.02v33.07h-11.35v-76.52Z" fill="#fff"/>
    <path d="M486.54,495.13c-5.67-3.3-10.03-7.92-13.05-13.86-3.03-5.94-4.54-12.81-4.54-20.59s1.59-14.7,4.78-20.75c3.19-6.05,7.59-10.78,13.21-14.19,5.62-3.4,12-5.11,19.13-5.11,10.92,0,19.48,3.49,25.7,10.46,6.21,6.97,9.32,16.51,9.32,28.61v4.21h-60.79c.33,8.11,2.81,14.59,7.46,19.45,4.65,4.86,10.86,7.3,18.64,7.3,7.02,0,12.56-1.48,16.62-4.46,4.05-2.97,7-6.89,8.83-11.75l9.89,3.73c-2.59,6.48-6.78,11.75-12.56,15.81-5.78,4.05-13.37,6.08-22.78,6.08-7.57,0-14.18-1.65-19.86-4.94ZM522.86,436.53c-4.16-4.43-9.81-6.65-16.94-6.65s-13.05,2.3-17.75,6.89c-4.7,4.6-7.38,10.78-8.03,18.56h49.28c-.22-8.11-2.41-14.37-6.57-18.81Z" fill="#fff"/>
    <path d="M563.47,496.59c-5.84-2.65-10.54-6.4-14.1-11.27l9.4-5.35c2.92,3.78,6.51,6.62,10.78,8.51,4.27,1.89,8.78,2.84,13.54,2.84,5.19,0,9.32-1.19,12.4-3.57,3.08-2.38,4.62-5.56,4.62-9.56,0-3.24-1.3-5.73-3.89-7.46-2.59-1.73-6.65-3.3-12.16-4.7l-6.48-1.62c-5.73-1.3-10.43-2.7-14.1-4.21-3.68-1.51-6.59-3.67-8.75-6.48-2.16-2.81-3.24-6.48-3.24-11.02,0-4.22,1.19-8,3.57-11.35,2.38-3.35,5.62-6,9.73-7.94,4.11-1.95,8.7-2.92,13.78-2.92,6.38,0,12.18,1.27,17.43,3.81,5.24,2.54,9.81,6.14,13.7,10.78l-9.24,5.51c-2.7-3.57-5.97-6.29-9.81-8.19-3.84-1.89-7.92-2.84-12.24-2.84-4.86,0-8.75,1.13-11.67,3.4s-4.38,5.3-4.38,9.08c0,2.81.86,5,2.59,6.57,1.73,1.57,4.48,2.89,8.27,3.97,2.38.54,5.67,1.3,9.89,2.27.97.22,1.78.43,2.43.65,5.08,1.19,9.46,2.59,13.13,4.22,3.67,1.62,6.65,3.87,8.92,6.73,2.27,2.86,3.4,6.46,3.4,10.78,0,4.54-1.19,8.57-3.57,12.08-2.38,3.51-5.7,6.27-9.97,8.27-4.27,2-9.22,3-14.83,3-6.92,0-13.29-1.32-19.13-3.97Z" fill="#fff"/>
    <path d="M631.88,496.59c-5.84-2.65-10.54-6.4-14.1-11.27l9.4-5.35c2.92,3.78,6.51,6.62,10.78,8.51,4.27,1.89,8.78,2.84,13.54,2.84,5.19,0,9.32-1.19,12.4-3.57,3.08-2.38,4.62-5.56,4.62-9.56,0-3.24-1.3-5.73-3.89-7.46-2.59-1.73-6.65-3.3-12.16-4.7l-6.48-1.62c-5.73-1.3-10.43-2.7-14.1-4.21-3.68-1.51-6.59-3.67-8.75-6.48-2.16-2.81-3.24-6.48-3.24-11.02,0-4.22,1.19-8,3.57-11.35,2.38-3.35,5.62-6,9.73-7.94,4.11-1.95,8.7-2.92,13.78-2.92,6.38,0,12.18,1.27,17.43,3.81,5.24,2.54,9.81,6.14,13.7,10.78l-9.24,5.51c-2.7-3.57-5.97-6.29-9.81-8.19-3.84-1.89-7.92-2.84-12.24-2.84-4.86,0-8.75,1.13-11.67,3.4s-4.38,5.3-4.38,9.08c0,2.81.86,5,2.59,6.57,1.73,1.57,4.48,2.89,8.27,3.97,2.38.54,5.67,1.3,9.89,2.27.97.22,1.78.43,2.43.65,5.08,1.19,9.46,2.59,13.13,4.22,3.67,1.62,6.65,3.87,8.92,6.73,2.27,2.86,3.4,6.46,3.4,10.78,0,4.54-1.19,8.57-3.57,12.08-2.38,3.51-5.7,6.27-9.97,8.27-4.27,2-9.22,3-14.83,3-6.92,0-13.29-1.32-19.13-3.97Z" fill="#fff"/>
    <path d="M691.54,482.24h15.73v16.37h-15.73v-16.37Z" fill="#fff"/>
  </g>
</svg>